<svg width="784" height="545" viewBox="0 0 784 545" fill="none" xmlns="http://www.w3.org/2000/svg">
<path d="M309 249L339 263.643V372L309 351.61V249Z" fill="#CCA174"/>
<path d="M309.003 233.712L309.019 251.038L384 314.519L384 296.198L309.003 233.712Z" fill="#CCA174"/>
<rect x="209" y="7" width="30" height="295" fill="#CCA174"/>
<rect x="209" y="51" width="44" height="95" rx="1" transform="rotate(-90 209 51)" fill="#CCA174"/>
<path d="M289 45.5145L304.039 7.46913L383.969 65.3615L383.969 112.995L289 45.5145Z" fill="#CCA174"/>
<path d="M209 302.141L224.039 264.095L339 346.762L339 398.06L209 302.141Z" fill="#CCA174"/>
<path d="M308.001 218.52L323.251 180.413L383.955 232.936L384.062 283.467L308.001 218.52Z" fill="#CCA174"/>
<path d="M338.407 218.96L308 218.52L308 154.438L338 154.438L338.407 218.96Z" fill="#CCA174"/>
<path d="M280 126H338V155H308L280 126Z" fill="#CCA174"/>
<path d="M458.127 249L428.127 263.643V372L458.127 351.61V249Z" fill="#CCA174"/>
<path d="M458.124 233.712L458.108 251.038L383.127 314.519L383.127 296.198L458.124 233.712Z" fill="#CCA174"/>
<rect width="30" height="295" transform="matrix(-1 0 0 1 558.127 7)" fill="#CCA174"/>
<rect width="44" height="95" rx="1" transform="matrix(2.98243e-08 -1 -1 -6.40647e-08 558.127 51)" fill="#CCA174"/>
<path d="M478.127 45.5145L463.089 7.46913L383.159 65.3615L383.159 112.995L478.127 45.5145Z" fill="#CCA174"/>
<path d="M558.127 302.141L543.089 264.095L428.127 346.762L428.127 398.06L558.127 302.141Z" fill="#CCA174"/>
<path d="M459.127 218.52L443.876 180.413L383.172 232.936L383.066 283.467L459.127 218.52Z" fill="#CCA174"/>
<path d="M428.72 218.96L459.127 218.52L459.127 154.438L429.127 154.438L428.72 218.96Z" fill="#CCA174"/>
<path d="M487.127 126H429.127V155H459.127L487.127 126Z" fill="#CCA174"/>
<path d="M64.3769 494L49.0169 526.4C46.7769 530.72 43.9769 532.88 40.6169 532.88C37.3369 532.88 34.5769 530.6 32.3369 526.04L16.7369 494V545H0.0568758V459.56H16.4969L40.6169 508.88L64.6169 459.56H81.0569V545H64.3769V494ZM151.203 545H125.763C116.163 545 109.203 543.16 104.883 539.48C100.643 535.72 98.5225 529.64 98.5225 521.24V459.56H115.203V521.24C115.203 524.6 115.963 526.92 117.483 528.2C119.003 529.48 121.763 530.12 125.763 530.12H151.203V545ZM226.419 520.4C226.419 528.32 224.259 534.4 219.939 538.64C215.699 542.88 209.739 545 202.059 545H190.539C181.099 545 174.379 543.36 170.379 540.08C166.459 536.8 164.499 531.12 164.499 523.04V459.56H200.619C208.779 459.56 214.899 461.6 218.979 465.68C223.139 469.76 225.219 475.52 225.219 482.96C225.219 487.28 224.099 490.96 221.859 494C219.699 497.04 217.299 499.2 214.659 500.48C222.499 504.16 226.419 510.8 226.419 520.4ZM199.299 492.92C205.459 492.92 208.539 489.84 208.539 483.68C208.539 477.52 205.459 474.44 199.299 474.44H181.179V492.92H199.299ZM209.739 519.56C209.739 515.72 209.059 512.84 207.699 510.92C206.339 508.92 203.899 507.92 200.379 507.92H181.179V521.36C181.179 524.64 181.979 526.92 183.579 528.2C185.259 529.48 187.979 530.12 191.739 530.12H200.379C206.619 530.12 209.739 526.6 209.739 519.56ZM305.403 520.4C305.403 528.32 303.243 534.4 298.923 538.64C294.683 542.88 288.723 545 281.043 545H269.523C260.083 545 253.363 543.36 249.363 540.08C245.443 536.8 243.483 531.12 243.483 523.04V459.56H279.603C287.763 459.56 293.883 461.6 297.963 465.68C302.123 469.76 304.203 475.52 304.203 482.96C304.203 487.28 303.083 490.96 300.843 494C298.683 497.04 296.283 499.2 293.643 500.48C301.483 504.16 305.403 510.8 305.403 520.4ZM278.283 492.92C284.443 492.92 287.523 489.84 287.523 483.68C287.523 477.52 284.443 474.44 278.283 474.44H260.163V492.92H278.283ZM288.723 519.56C288.723 515.72 288.043 512.84 286.683 510.92C285.323 508.92 282.883 507.92 279.363 507.92H260.163V521.36C260.163 524.64 260.963 526.92 262.563 528.2C264.243 529.48 266.963 530.12 270.723 530.12H279.363C285.603 530.12 288.723 526.6 288.723 519.56ZM413.838 545H397.158V510.44H365.838V545H349.158V459.56H365.838V495.68H397.158V459.56H413.838V545ZM488.787 545H458.547C448.947 545 442.187 543.36 438.267 540.08C434.427 536.72 432.507 530.84 432.507 522.44V459.56H488.787V474.44H449.187V494.48H476.907L475.707 509.36H449.187V521.24C449.187 524.6 449.947 526.92 451.467 528.2C452.987 529.48 455.747 530.12 459.747 530.12H488.787V545ZM557.843 545H532.403C522.803 545 515.843 543.16 511.523 539.48C507.283 535.72 505.163 529.64 505.163 521.24V459.56H521.843V521.24C521.843 524.6 522.603 526.92 524.123 528.2C525.643 529.48 528.403 530.12 532.403 530.12H557.843V545ZM625.02 467C629.98 471.88 632.46 479.08 632.46 488.6C632.46 498.12 629.98 505.36 625.02 510.32C620.14 515.2 613.22 517.64 604.26 517.64H587.82V545H571.14V459.56H604.26C613.22 459.56 620.14 462.04 625.02 467ZM615.78 488.6C615.78 479.16 611.66 474.44 603.42 474.44H587.82V502.64H603.42C607.42 502.64 610.46 501.56 612.54 499.4C614.7 497.24 615.78 493.64 615.78 488.6ZM702.771 545H672.531C662.931 545 656.171 543.36 652.251 540.08C648.411 536.72 646.491 530.84 646.491 522.44V459.56H702.771V474.44H663.171V494.48H690.891L689.691 509.36H663.171V521.24C663.171 524.6 663.931 526.92 665.451 528.2C666.971 529.48 669.731 530.12 673.731 530.12H702.771V545ZM783.828 545H764.508L747.828 513.32H735.828V545H719.148V477.92C719.148 471.52 720.628 466.88 723.588 464C726.548 461.04 731.508 459.56 738.468 459.56H752.628C761.108 459.56 767.828 462.16 772.788 467.36C777.828 472.48 780.348 479 780.348 486.92C780.348 492.68 778.828 497.68 775.788 501.92C772.828 506.08 769.148 508.96 764.748 510.56L783.828 545ZM751.548 499.4C755.068 499.4 757.948 498.2 760.188 495.8C762.508 493.32 763.668 490.28 763.668 486.68C763.668 483 762.548 480.04 760.308 477.8C758.148 475.56 755.228 474.44 751.548 474.44H743.268C738.308 474.44 735.828 476.96 735.828 482V499.4H751.548Z" fill="#CCA174" fill-opacity="0.6"/>
</svg>
